<svg xmlns="http://www.w3.org/2000/svg" version="1.1" viewBox="-5.0 -10.0 110.0 135.0">
 <path d="m78.461 50.895c1.0625-7.7617-1.7578-15.125-7.5703-20.086 2.4648-2.1641 4.5352-4.7383 6.1211-7.6055 1.6953-3.0625 0.36719-5.7109-1.5859-6.875-1.7734-1.0586-3.375 1.625-1.6016 2.6836 0.54297 0.32422 1.3203 1.1016 0.45312 2.6797h0.003906c-3.043 5.4961-8.0156 9.668-13.957 11.707-2.3633 0.8125-4.3906-2.0977-2.6992-4.0469 5.6289-6.4805 9.7188-14.152 11.961-22.438 0.29687-1.0898 1.8906-0.75781 1.7461 0.34375h0.003907c-0.58203 4.5156-1.8633 8.9141-3.7969 13.039-0.875 1.875 1.9531 3.1992 2.8281 1.3281l0.003906-0.003906c2.0703-4.418 3.4414-9.1289 4.0664-13.965 0.63281-4.9219-6.5391-6.375-7.8594-1.5625h-0.003906c-1.8867 6.957-5.1484 13.465-9.5977 19.137-6.5352-0.35156-12.68 2.1328-17.383 7.0508-5.125 5.3672-9.375 11.785-16.359 11.582 3.3438-4.9062 10.844-12.586 3.8125-16.797-1.7734-1.0625-3.3789 1.6172-1.6094 2.6797 4.1133 2.4648-1.9922 7.6055-5.7734 13.879-8.8242 0.59766-10.633 13.523-0.45703 16.758v0.003907c0.94141 3.0586 3.7656 5.1484 6.9648 5.1523 4.4766 0 9.1133 0.57813 14.211 0.83984-4.6133 7.4961-15.859 17.578-16.047 28.906-0.03125 2.0625 3.0898 2.1172 3.125 0.050782h-0.003907c0.03125-1.2773 0.21484-2.5469 0.54297-3.7812 4.1719 1.582 8.6875 2.0312 13.086 1.3047 2.0391-0.33594 1.5352-3.4141-0.50781-3.0859l0.003906 0.003906c-3.8945 0.64062-7.8867 0.23438-11.57-1.1836 0.90625-2.082 2-4.0781 3.2695-5.9609 3.457 1.3555 7.1953 1.6484 10.883 1.0156 2.0391-0.35156 1.5078-3.4297-0.53125-3.0781v-0.003906c-2.8398 0.51562-5.7617 0.31641-8.5078-0.58594 1.3438-1.8516 2.7578-3.6406 4.1484-5.4141l0.003906-0.003906c1.5742 0.39844 3.1758 0.66016 4.793 0.78125 1.9844 0 2.1016-2.9609 0.125-3.125-0.94141-0.078125-1.8789-0.20703-2.8047-0.39062 1.4375-1.9023 2.6602-3.6641 3.5156-5.332 12.328 0.14844 21.703-3.2461 27.559-14.477 1.0234-1.9414 0.39062-4.3477-1.4609-5.5352l0.82812-1.707h-0.003906c0.59766-1.2344 0.55859-2.6836-0.10938-3.8867-0.66406-1.1992-1.8672-2.0039-3.2344-2.1562-5.8789-0.64844-11.352 1.9961-14.914 6.4336-1.2969 1.6094 1.1406 3.5703 2.4375 1.9531 2.8906-3.5977 7.3164-5.8203 12.137-5.2852 0.35547 0.039062 0.66797 0.25 0.84375 0.5625s0.18359 0.69141 0.03125 1.0117l-1.5938 3.293c-0.23047 0.47656-0.20312 1.0391 0.074219 1.4922 0.27344 0.45313 0.76172 0.73828 1.293 0.75 0.375 0.019532 0.71484 0.23047 0.89844 0.55859 0.1875 0.32812 0.19141 0.72656 0.015625 1.0586-9.3789 17.992-28.863 11.754-42.535 11.852-1.3945-0.003906-2.6953-0.70312-3.4609-1.8672 4.3594-0.84375 8.2812-4.9297 14.883-4.5625 2.7109 0.14844 5.4062 1.0234 8.0234 2.6016 1.7695 1.0703 3.3828-1.6094 1.6133-2.6758-3.0547-1.8438-6.2422-2.8672-9.4648-3.0469-9.1953-0.50781-13.938 6.1445-17.984 4.3945-5.9531-2.5703-5.1445-8.3633-1.6953-10.062-0.60938 2.5234 0.20312 4.7031 2.5781 6.2031 1.7578 1.1016 3.4141-1.5391 1.6641-2.6406-1.293-0.81641-1.7578-1.7852-0.82812-3.9141 9.5312 1.3516 14.539-6.3164 20.355-12.406 3.5-3.668 7.9219-5.7656 12.68-6.0781-2.3633 4.4141 1.9414 9.6641 6.8008 7.9883l0.007812-0.003906c2.4961-0.85547 4.8633-2.0547 7.0312-3.5625 5.332 4.2656 7.9375 10.797 6.9922 17.691-1.6719 12.18-9.5781 26.973-9.5781 44.84 0 2.0664 3.125 2.0664 3.125 0 0-17.305 7.8281-31.836 9.5469-44.418z"/>
 <path d="m52.711 70.477c-1.5156 8.2031-7.8516 16.539-7.8516 24.836 0 2.0664 3.125 2.0664 3.125 0 0-7.4414 6.1953-15.602 7.7969-24.266 0.375-2.0312-2.6953-2.6016-3.0703-0.57031z"/>
 <path d="m43.164 38.605c-0.83203 0.97656-1.7461 1.875-2.7344 2.6914-1.5938 1.3164 0.39062 3.7266 1.9922 2.4102v0.003907c1.125-0.93359 2.1719-1.9648 3.125-3.0781 1.3281-1.5703-1.0508-3.6016-2.3828-2.0273z"/>
 <path d="m82.141 59.363c1.2578-0.94531 2.3477-2.0859 3.2383-3.3789 4.0312-5.9141 1.4297-10.453-2.6992-15.734 0.92969-0.80078 1.6875-1.7812 2.2227-2.8828 0.63672-1.3125 0.62891-2.8438-0.023438-4.1445-0.64844-1.3047-1.8672-2.2305-3.2969-2.5078-1.4648-0.28125-2.8945-0.71875-4.2617-1.3125-1.8984-0.82031-3.1406 2.0469-1.2422 2.8672l-0.003906-0.003906c1.5781 0.6875 3.2305 1.1953 4.9219 1.5195 0.47266 0.097656 0.87109 0.40625 1.0859 0.83984 0.21094 0.42969 0.21484 0.93359 0.003907 1.3672v0.003906c-0.50391 1.0586-1.3203 1.9375-2.3438 2.5195-0.73047 0.41797-0.99609 1.3398-0.60156 2.0859 1.6328 3.0742 7.8672 7.4453 3.6562 13.621-0.98828 1.4258-2.2812 2.6133-3.7891 3.4766-0.39844 0.23047-0.67187 0.62109-0.75391 1.0742-0.082031 0.44922 0.039063 0.91406 0.33203 1.2695 3.3438 4.0469 4.9922 4.0391 4.7188 6.2812-0.72656 6.0156-3.8828 10.906-8.8828 13.766-0.35938 0.20312-0.625 0.54297-0.73438 0.94531-0.10938 0.39844-0.054688 0.82422 0.14844 1.1875 2.043 3.5703 4.2812 3.9688 3.3398 6.5-0.76172 2.0391-1.8945 3.9219-3.3398 5.5508-1.3672 1.5625 0.97656 3.6172 2.3438 2.0664 1.6992-1.918 3.0273-4.1289 3.9219-6.5273 1.5469-4.168-1.6719-6.4297-2.7344-7.8828 5.0664-3.4375 8.2539-8.7891 9.0312-15.234 0.46875-3.7969-2.2891-5.2305-4.2578-7.332z"/>
<text x="0.0" y="117.5" font-size="5.0" font-weight="bold" font-family="Arbeit Regular, Helvetica, Arial-Unicode, Arial, Sans-serif" fill="#000000">Created by omeneko</text><text x="0.0" y="122.5" font-size="5.0" font-weight="bold" font-family="Arbeit Regular, Helvetica, Arial-Unicode, Arial, Sans-serif" fill="#000000">from Noun Project</text></svg>