<svg xmlns:dc="http://purl.org/dc/elements/1.1/" xmlns:cc="http://creativecommons.org/ns#" xmlns:rdf="http://www.w3.org/1999/02/22-rdf-syntax-ns#" xmlns:svg="http://www.w3.org/2000/svg" xmlns="http://www.w3.org/2000/svg" xmlns:sodipodi="http://sodipodi.sourceforge.net/DTD/sodipodi-0.dtd" xmlns:inkscape="http://www.inkscape.org/namespaces/inkscape" viewBox="0 0 12.7 15.875" version="1.1" x="0px" y="0px"><g transform="translate(0,-284.29999)"><g transform="matrix(1.1089007,0,0,1.1089007,8267.3244,-1370.998)"><path transform="matrix(0.26458333,0,0,0.26458333,0,284.29998)" d="m -28156.57,4569.1309 a 7.6544882,7.6544882 0 0 0 -7.432,7.6503 v 3.1133 a 2.5919107,2.5919107 0 0 0 0,5.1231 7.654012,7.654012 0 0 0 2.82,5.5527 l -1.886,1.2656 a 0.79999997,0.79999997 0 0 0 -0.352,0.6661 v 2.9941 l -5.18,1.3613 a 4.3667138,4.3667138 0 0 0 -3.261,4.2246 v 6.3242 a 1.4000001,1.4000001 0 0 0 1.398,1.4004 h 28.25 a 1.4000001,1.4000001 0 0 0 1.402,-1.4004 v -6.3242 a 4.3667138,4.3667138 0 0 0 -3.261,-4.2246 l -5.203,-1.3613 v -2.9941 a 0.79999997,0.79999997 0 0 0 -0.354,-0.6661 l -1.885,-1.2656 a 7.654012,7.654012 0 0 0 2.821,-5.5527 2.5919107,2.5919107 0 0 0 0,-5.1231 v -3.1133 a 7.6544882,7.6544882 0 0 0 -7.877,-7.6503 z m 0.234,0.8222 a 6.1808828,6.1808828 0 0 1 2.512,4.9727 v 1.9804 h -5.024 v -1.9804 a 6.1808828,6.1808828 0 0 1 2.512,-4.9727 z m -1.336,0.1055 a 6.9808825,6.9808825 0 0 0 -1.974,4.8672 v 1.9804 h -3.545 v -0.125 a 6.8540117,6.8540117 0 0 1 5.519,-6.7226 z m 2.672,0 a 6.8540117,6.8540117 0 0 1 5.516,6.7226 v 0.125 h -3.541 v -1.9804 a 6.9808825,6.9808825 0 0 0 -1.975,-4.8672 z m -8.191,7.6484 h 13.707 v 2.1563 h -13.707 z m 0,2.9571 h 13.707 v 3.9629 a 6.854031,6.854031 0 0 1 -13.707,0 z m -0.799,0.045 v 3.4922 a 1.7919107,1.7919107 0 0 1 0,-3.4922 z m 15.308,0 a 1.7919107,1.7919107 0 0 1 0,3.4922 z m -3.578,10.3242 1.744,1.1719 -1.744,0.7265 z m -8.211,0.033 a 7.6540119,7.6540119 0 0 0 0.06,0.039 v 1.8261 l -1.742,-0.7265 z m 0.858,0.4785 a 7.6540119,7.6540119 0 0 0 6.554,0 v 1.7207 l -3.046,1.2696 a 0.6000001,0.6000001 0 0 1 -0.461,0 l -3.047,-1.2696 z m -2.987,1.3418 5.725,2.3867 a 1.4000001,1.4000001 0 0 0 1.076,0 l 5.725,-2.3867 v 2.6524 l -6.031,2.5136 a 0.6000001,0.6000001 0 0 1 -0.461,0 l -6.034,-2.5136 z m -0.414,3.336 a 0.79999996,0.79999996 0 0 0 0.11,0.053 l 6.029,2.5137 a 1.4000001,1.4000001 0 0 0 0.141,0.049 v 2.4726 h -1.918 a 0.40006298,0.40006298 0 0 0 0,0.7989 h 1.918 v 2.2383 h -1.918 a 0.4000103,0.4000103 0 0 0 0,0.7988 h 1.918 v 2.8594 h -9.461 v -5.2657 a 0.4015,0.4015 0 0 0 -0.803,0 v 5.2657 h -3.463 a 0.6000001,0.6000001 0 0 1 -0.598,-0.6016 v -6.3242 a 3.566714,3.566714 0 0 1 2.661,-3.4512 v 0 z m 13.358,0 5.383,1.4082 a 3.566714,3.566714 0 0 1 2.662,3.4512 v 6.3242 a 0.6000001,0.6000001 0 0 1 -0.6,0.5996 h -3.465 v -5.2637 a 0.39999998,0.39999998 0 0 0 -0.799,0 v 5.2637 h -9.461 v -2.8574 h 1.918 a 0.4004,0.4004 0 0 0 0,-0.8008 h -1.918 v -2.2363 h 1.918 a 0.4004,0.4004 0 0 0 0,-0.8008 h -1.918 v -2.4707 a 1.4000001,1.4000001 0 0 0 0.137,-0.049 v 0 l 6.031,-2.5137 a 0.79999996,0.79999996 0 0 0 0.112,-0.053 z" style="" fill="#000000" stroke="none"/><path d="m -7449.5454,1495.7702 a 0.15190942,0.15190942 0 1 0 -0.3038,0 0.15190942,0.15190942 0 1 0 0.3038,0 z" style="" fill="#000000" stroke="none"/><path d="m -7449.1512,1497.0304 a 0.30253545,0.30253545 0 0 1 0.5845,0 0.1058352,0.1058352 0 0 0 0.2044,-0.055 0.51420211,0.51420211 0 0 0 -0.9933,0 0.1058352,0.1058352 0 0 0 0.2044,0.055 z" style="" fill="#000000" stroke="none"/><path transform="matrix(0.26458333,0,0,0.26458333,0,284.29998)" d="m -28159.229,4586.2109 a 0.29999992,0.29999992 0 0 0 -0.271,0.2969 3.1630937,3.1630937 0 1 0 6.326,0 0.29999992,0.29999992 0 0 0 -0.299,-0.2969 h -5.726 a 0.29999992,0.29999992 0 0 0 -0.03,0 z m 0.583,0.7989 h 4.621 a 2.3629313,2.3629313 0 0 1 -4.621,0 z" style="" fill="#000000" stroke="none"/><path d="m -7450.0389,1496.9756 a 0.51420211,0.51420211 0 0 0 -0.9934,0 0.10588349,0.10588349 0 0 0 0.2045,0.055 0.30253545,0.30253545 0 0 1 0.5845,0 0.1058352,0.1058352 0 0 0 0.2044,-0.055 z" style="" fill="#000000" stroke="none"/></g></g><text x="0" y="27.7" fill="#000000" font-size="5px" font-weight="bold" font-family="'Helvetica Neue', Helvetica, Arial-Unicode, Arial, Sans-serif">Created by Phạm Thanh Lộc</text><text x="0" y="32.7" fill="#000000" font-size="5px" font-weight="bold" font-family="'Helvetica Neue', Helvetica, Arial-Unicode, Arial, Sans-serif">from the Noun Project</text></svg>