<svg xmlns="http://www.w3.org/2000/svg" viewBox="0 0 512 640" x="0px" y="0px"><g data-name="Layer 14"><path d="M403.346,335.547,368.3,315.836c-6.871-27.831-20.677-53.04-39.769-71.7a151.761,151.761,0,0,0,22.783-53.26c12.393-2.315,25.5-14.584,25.5-29.466,0-14.937-12.856-27.26-25.066-29.66-5.156-26.429-17.118-50.35-34.183-67.47l3.46-22.143h47.208a5,5,0,0,0,3.909-8.119c-.009-.01-.057-.072-.066-.082A75.186,75.186,0,0,0,313.438,6H197.716a75.188,75.188,0,0,0-58.633,27.936l-.065.082a5,5,0,0,0,3.908,8.119h48.346l2.709,23.981c-15.735,16.874-26.8,40.1-31.662,65.646-12.19,2.432-25,14.737-25,29.646,0,14.87,13.082,27.13,25.465,29.459a153.728,153.728,0,0,0,21.079,51.214c-20.463,18.969-35.094,45.419-42.02,74.989l-33.171,18.464a104.9,104.9,0,0,0-53.815,91.621V501a5,5,0,0,0,5,5H452.142a5,5,0,0,0,5-5V427.157A104.9,104.9,0,0,0,403.346,335.547ZM353.471,142.713c6.838,3.049,13.337,10.689,13.337,18.7,0,7.907-6.595,15.452-13.542,18.475a135.8,135.8,0,0,0,1.322-18.653A154.462,154.462,0,0,0,353.471,142.713ZM147.32,161.41c0-8,6.483-15.629,13.311-18.685a158.17,158.17,0,0,0-1.093,18.507,137.159,137.159,0,0,0,1.3,18.644C153.9,176.849,147.32,169.31,147.32,161.41Zm7.327-129.273A65.185,65.185,0,0,1,197.716,16H313.438A65.175,65.175,0,0,1,356.5,32.137Zm156.256,10-4.079,20.871c-48.565,19.674-90.859,5.14-102.666.218l-2.846-21.089ZM201.345,72.879a148.449,148.449,0,0,0,54.2,10.127A145.82,145.82,0,0,0,310.58,72.275c.19-.077.365-.18.55-.266,11.313,11.568,20.144,26.467,25.883,43.185a71.2,71.2,0,0,0-24.795-12.269l-.172-.048a43.688,43.688,0,0,0-25.373,1l-7.979,2.934c-12.079,4.443-28.243,4.4-40.223-.121l-9.252-3.489a40.489,40.489,0,0,0-13.884-2.487c-16.949-.106-28.829,4.609-37.122,10.8C183.659,96.659,191.515,83.4,201.345,72.879Zm-31.807,88.353a148.415,148.415,0,0,1,2.334-26.242c5.066-11.2,16.6-24.278,42.879-24.278l.519,0a30.384,30.384,0,0,1,10.42,1.845l9.253,3.488c14.284,5.385,32.813,5.444,47.2.149l7.979-2.934a33.631,33.631,0,0,1,19.265-.744l.134.037c10.432,2.921,24.506,9.434,32.908,23.805a144.787,144.787,0,0,1,2.156,24.872c0,28.4-10.225,58.623-27.087,81.126-.576-2.131-1.171-4.306-1.793-6.542-3.511-12.611-9.967-21.374-19.189-26.045-13.73-6.955-29.646-2.75-37.91.376a7.591,7.591,0,0,1-5.345.019c-8.472-3.159-24.767-7.4-38.717-.291-9.221,4.7-15.664,13.427-19.148,25.941q-.55,1.977-1.074,3.9C178.885,217.613,169.538,188.429,169.538,161.232Zm62.579,104.235c5.757-10.132,12.033-19.607,20.114-25.238a6.688,6.688,0,0,1,7.632,0h0c7.85,5.5,13.91,14.664,19.43,24.532C254.763,278.047,238.368,269.921,232.117,265.467Zm11.035,83.122-35.717-44.18c7.85-8.1,13.848-19.128,19.735-29.974l.113-.207c.935.623,2,1.273,3.174,1.924,8.805,17.756,9.385,26.859,11.014,52.588.209,3.315.436,6.891.7,10.781C242.388,342.761,242.727,345.754,243.152,348.589ZM253.5,282.022a58.75,58.75,0,0,0,19.674-3.6c5.517,10.2,3.666,17.205-.947,34.635-1.992,7.528-4.471,16.9-6.945,28.922a216.679,216.679,0,0,0-4.31,30.064,83.543,83.543,0,0,1-8.824-33.2c-.262-3.875-.487-7.437-.7-10.739-1.393-22-2.081-32.856-7.817-47.086A48.606,48.606,0,0,0,253.5,282.022ZM275.076,344c2.417-11.753,4.857-20.972,6.818-28.379,4.742-17.921,7.366-27.867.473-41.182q.852-.435,1.676-.878l.494.932c7,13.221,14.153,26.718,24.722,34.82L273.093,354.55C273.861,349.908,274.629,346.169,275.076,344Zm18.3-74.186c-7.574-14.307-15.4-29.1-27.774-37.765h0a16.719,16.719,0,0,0-19.086-.021c-12.385,8.629-20.391,23.377-28.133,37.64-9.517,17.531-18.55,34.172-34.321,36.823,5.464-8.347,8.829-21.472,13.924-41.348,2.012-7.849,4.292-16.744,7.048-26.641,2.7-9.7,7.43-16.338,14.054-19.712a27.857,27.857,0,0,1,12.7-2.762,54.006,54.006,0,0,1,17.979,3.511,17.6,17.6,0,0,0,12.378-.034c6.725-2.543,19.544-6.03,29.854-.809,6.612,3.349,11.347,10.013,14.073,19.806,2.755,9.9,5.036,18.792,7.048,26.64,5.094,19.874,8.459,33,13.922,41.346C311.386,303.828,302.613,287.262,293.375,269.81ZM134.273,496V456.547a5,5,0,0,0-10,0V496H64.858V427.157a94.9,94.9,0,0,1,48.678-82.883l25.817-14.37a173.306,173.306,0,0,0-2.033,26.457c0,19.148,4.84,49.246,12.632,78.55,3.47,13.052,12.012,42.349,23.154,61.089Zm50.77,0c-18.478-25.282-37.723-101.986-37.723-139.639,0-41.626,15.763-80.818,42.394-106.061.442.573.878,1.156,1.329,1.719-.973,3.731-1.885,7.285-2.745,10.637-5.366,20.933-8.911,34.762-14.524,40.849a7.947,7.947,0,0,0,5.794,13.349h.02a35.642,35.642,0,0,0,20.189-6.011l3.408,4.216L238.192,496Zm63.335,0-31.8-164.378,34.276,42.4c1.935,4.215,4.1,8.359,6.413,12.785l1.029,1.97a6.622,6.622,0,0,0,5.889,3.6,6.765,6.765,0,0,0,1.8-.245,6.621,6.621,0,0,0,4.885-6.806,107.038,107.038,0,0,1,.064-12.051l25.121-31.426L268.691,496Zm30.469,0L309.11,325.511l8.927-11.168a36,36,0,0,0,13.483,2.511h.02a7.947,7.947,0,0,0,5.794-13.348c-5.614-6.088-9.159-19.917-14.525-40.852-.675-2.631-1.383-5.391-2.126-8.256.608-.715,1.2-1.453,1.793-2.186,25.6,25.573,40.751,64.057,40.751,104.149,0,22.546-4.409,51.785-11.794,78.213-7.941,28.413-18.29,50.095-29.274,61.426Zm168.3,0H383.663V456.547a5,5,0,0,0-10,0V496H335.214c8.018-10.76,17.47-28.748,25.849-58.734,7.617-27.255,12.164-57.5,12.164-80.905a169.306,169.306,0,0,0-2.271-27.556l27.508,15.469a94.9,94.9,0,0,1,48.678,82.883Z"/><path d="M235.434,141.829a5,5,0,1,0,5.292-8.484c-10.267-6.4-35.085-9.745-50.606-.4a5,5,0,1,0,5.158,8.567C206.789,134.584,227.574,136.927,235.434,141.829Z"/><path d="M242.055,193.005a5,5,0,0,0,1.223,6.964,23.9,23.9,0,0,0,13.014,4.075,18.07,18.07,0,0,0,11.9-4.343,5,5,0,1,0-6.438-7.652c-5.434,4.574-12.413-.053-12.753-.284A5,5,0,0,0,242.055,193.005Z"/><path d="M216.872,149.592h-.089c-11.395,0-19.774,8.355-20.126,8.712a5,5,0,0,0,7.1,7.042c.058-.059,5.873-5.754,13.025-5.754h.116c4.034.035,7.929,1.956,11.578,5.71a5,5,0,0,0,7.17-6.971C230.035,152.559,223.718,149.618,216.872,149.592Z"/><path d="M297.388,149.592H297.3c-11.4,0-19.774,8.355-20.126,8.712a5,5,0,0,0,7.1,7.042c.058-.059,5.873-5.754,13.024-5.754h.116c4.034.035,7.93,1.956,11.579,5.71a5,5,0,0,0,7.17-6.971C310.552,152.558,304.235,149.617,297.388,149.592Z"/><path d="M277.808,141.512c11.51-6.928,32.3-4.583,40.155.317a5,5,0,1,0,5.292-8.484c-10.267-6.405-35.086-9.744-50.606-.4a5,5,0,1,0,5.159,8.567Z"/></g><text x="0" y="527" fill="#000000" font-size="5px" font-weight="bold" font-family="'Helvetica Neue', Helvetica, Arial-Unicode, Arial, Sans-serif">Created by Icongeek26</text><text x="0" y="532" fill="#000000" font-size="5px" font-weight="bold" font-family="'Helvetica Neue', Helvetica, Arial-Unicode, Arial, Sans-serif">from the Noun Project</text></svg>