<svg xmlns="http://www.w3.org/2000/svg" version="1.1" viewBox="-5.0 -10.0 110.0 135.0">
 <path d="m57.031 35.156c0 3.125-4.6875 3.125-4.6875 0s4.6875-3.125 4.6875 0"/>
 <path d="m76.562 76.562c0 2.082-3.125 2.082-3.125 0s3.125-2.082 3.125 0"/>
 <path d="m78.125 70.312c0 2.082-3.125 2.082-3.125 0s3.125-2.082 3.125 0"/>
 <path d="m26.562 73.438c0 2.082-3.125 2.082-3.125 0s3.125-2.082 3.125 0"/>
 <path d="m47.656 35.156c0 3.125-4.6875 3.125-4.6875 0s4.6875-3.125 4.6875 0"/>
 <path d="m95.266 98.059-4.6406-18.566c-0.019531-3.1172-0.46094-5.7812-1.3438-8.1211-2.0312-5.5977-6.5391-9.4961-13.836-11.934l-14.512-4.3516v-3.3438c2.707-2.6562 4.3516-6.2109 4.6289-9.9922 2.6484-1.1445 6.3086-4.3008 6.3086-10.5 0-1.6641-0.64844-3.2344-1.832-4.418-1.1797-1.1836-2.75-1.832-4.418-1.832h-0.027344c-0.11719-2.6641-0.78125-6.2773-4.5078-9.1602 0.44922-0.4375 0.80859-0.96875 1.0508-1.5547 0 0 8.0859 1.3398 8.1719 1.3398 0.39844 0 0.78906-0.15625 1.082-0.43359 0.35547-0.34375 0.53125-0.83203 0.46875-1.3203l-1.5625-12.5c-0.097656-0.78125-0.76172-1.3672-1.5508-1.3672h-37.5c-0.78906 0-1.4531 0.58594-1.5508 1.3672l-1.5625 12.5c-0.0625 0.48828 0.11328 0.98047 0.46875 1.3203 0.35547 0.33984 0.85156 0.48828 1.3359 0.41406l7.9141-1.3203c0.24219 0.58984 0.60156 1.1172 1.0508 1.5547-3.7266 2.8828-4.3906 6.4961-4.5078 9.1602h-0.027343c-1.6641 0-3.2344 0.64844-4.418 1.832-1.1836 1.1797-1.832 2.75-1.832 4.418 0 6.1875 3.6484 9.3438 6.2969 10.492 0.38672 5.0742 3.3008 8.625 4.6406 10.008v3.3359l-14.559 4.3672c-7.2461 2.4219-11.754 6.3203-13.777 11.898-0.89062 2.3594-1.332 5.0234-1.3516 8.1406l-4.6406 18.566c-0.11719 0.46875-0.011718 0.96094 0.28516 1.3398 0.29688 0.37891 0.75 0.60156 1.2305 0.60156h87.5c0.48047 0 0.9375-0.22266 1.2305-0.60156 0.29688-0.37891 0.40234-0.875 0.28516-1.3398zm-37.473-28.145c-1.0391 1.6875-6.2383 9.6484-15.562 16.203l-0.011719-7.1836c3.1406-2.0703 6.1445-4.6484 8.9375-7.7266 2.8594-3.1445 5.0664-6.2969 6.6484-8.8438zm0.019531-14.008c-0.59766 1.25-3.2266 6.4844-7.8125 11.883-4.5859-5.3984-7.2148-10.633-7.8125-11.883v-1.7656c2.3594 1.3672 5.043 2.1094 7.8125 2.1094s5.457-0.74219 7.8125-2.1094zm-15.617 6.457c1.3984 2.25 3.2891 4.9727 5.6797 7.7461-1.8125 1.8906-3.7031 3.5938-5.6602 5.0391zm-0.007812-48.301c-0.86328 0-1.5625-0.69922-1.5625-1.5625s0.69922-1.5625 1.5625-1.5625 1.5625 0.69922 1.5625 1.5625-0.69922 1.5625-1.5625 1.5625zm2.8203 2.1562c1.1406 1.5273 2.9453 2.5312 4.9922 2.5312s3.8516-1.0039 4.9922-2.5312c0.66406 0.50391 1.4609 0.82812 2.332 0.91797 4.2539 2.2148 5.0117 5.2383 5.1445 7.8281-7.6562-0.3125-11.566-2.8086-11.602-2.8281-0.52344-0.34766-1.2031-0.34375-1.7266-0.003907-0.042969 0.027344-3.9531 2.5195-11.609 2.8359 0.13281-2.5898 0.89062-5.6133 5.1445-7.8281 0.87109-0.09375 1.668-0.41406 2.332-0.91797zm1.8672-3.7188c0-1.7227 1.4023-3.125 3.125-3.125s3.125 1.4023 3.125 3.125-1.4023 3.125-3.125 3.125-3.125-1.4023-3.125-3.125zm9.375 0c0-0.86328 0.69922-1.5625 1.5625-1.5625s1.5625 0.69922 1.5625 1.5625-0.69922 1.5625-1.5625 1.5625-1.5625-0.69922-1.5625-1.5625zm11.582 16.543c0.59375 0.59375 0.91797 1.375 0.91797 2.207 0 3.7969-1.6914 5.8203-3.125 6.8633v-9.9883c0.83203 0 1.6172 0.32422 2.207 0.91797zm-35.203-25.918h34.742l1.1328 9.0508-6.2266-1.0391c-0.58594-1.918-2.3516-3.3281-4.4609-3.3281-1.0625 0-2.0312 0.36719-2.8203 0.96875-1.1406-1.5273-2.9453-2.5312-4.9922-2.5312s-3.8516 1.0039-4.9922 2.5312c-0.78906-0.59766-1.7578-0.96875-2.8203-0.96875-2.1094 0-3.875 1.4062-4.4609 3.3281l-6.2266 1.0391 1.1328-9.0508zm-1.3789 28.125c0-0.83203 0.32422-1.6172 0.91797-2.207 0.59375-0.59375 1.375-0.91797 2.207-0.91797v9.9844c-1.4297-1.043-3.125-3.0703-3.125-6.8594zm6.25-3.1562c6.6328-0.24219 10.805-1.9883 12.5-2.8633 1.6953 0.875 5.8672 2.6211 12.5 2.8633v12.531c0 3.5508-1.5195 6.9414-4.1719 9.3086-2.2891 2.0586-5.2461 3.1914-8.3281 3.1914s-6.0391-1.1328-8.3281-3.1914c-0.42578-0.39062-4.1719-3.9688-4.1719-9.3086zm-29.25 68.781 4.25-17c-0.011719-1.6641 0.125-3.1523 0.375-4.5312l7.4414 9.5781c0.10156 5.5977 1.7773 9.5742 3.1875 11.957zm19.031 0c-1.0469-1.3281-3.8438-5.5234-3.8438-12.5 0-0.34766-0.11719-0.68359-0.32812-0.95703l-9.1211-11.742c1.8281-4.2812 5.4922-7.2461 11.461-9.2422l4.2422-1.2734 0.054688 35.711h-2.4648zm5.5898 0-0.054688-36.648 6.25-1.875 0.054688 38.523zm9.375 0-0.007813-7.0039c7.4492-4.8281 12.613-10.598 15.551-14.457l-0.03125 21.461zm18.633 0 0.054688-38.523 6.25 1.875-0.054688 36.652h-6.25zm9.4297-35.715 4.1953 1.2578c6.0039 2.0078 9.668 4.9688 11.508 9.2578l-9.1211 11.738c-0.21094 0.27344-0.32812 0.60938-0.32812 0.95703 0 6.9766-2.793 11.172-3.8438 12.5h-2.4648l0.054688-35.715zm6.1836 35.715c1.4141-2.3828 3.0859-6.3594 3.1875-11.957l7.4414-9.5781c0.25391 1.3789 0.38672 2.8711 0.375 4.5352l4.25 17z"/>
 <path d="m45.477 46.012c0.38672 0.77344 1.3281 1.082 2.0977 0.69922l2.4258-1.2109 2.4258 1.2109c0.22656 0.10937 0.46094 0.16406 0.69531 0.16406 0.57422 0 1.125-0.31641 1.3984-0.86328 0.38672-0.77344 0.074219-1.7109-0.69922-2.0977l-3.125-1.5625c-0.4375-0.21875-0.95703-0.21875-1.3984 0l-3.125 1.5625c-0.77344 0.38672-1.0859 1.3242-0.69922 2.0977z"/>
<text x="0.0" y="117.5" font-size="5.0" font-weight="bold" font-family="Arbeit Regular, Helvetica, Arial-Unicode, Arial, Sans-serif" fill="#000000">Created by Supanut Piyakanont</text><text x="0.0" y="122.5" font-size="5.0" font-weight="bold" font-family="Arbeit Regular, Helvetica, Arial-Unicode, Arial, Sans-serif" fill="#000000">from Noun Project</text></svg>